<!--?xml version="1.0" standalone="no"?-->              <svg id="sw-js-blob-svg" viewBox="0 0 100 100" xmlns="http://www.w3.org/2000/svg">                    <defs>                         <linearGradient id="sw-gradient" x1="0" x2="1" y1="1" y2="0">                            <stop id="stop1" stop-color="rgba(225.141, 79.201, 10.13, 1)" offset="0%"></stop>                            <stop id="stop2" stop-color="rgba(222.864, 170.656, 84.482, 1)" offset="100%"></stop>                        </linearGradient>                    </defs>                <path fill="url(#sw-gradient)" d="M16.7,-28.5C22,-25.9,26.8,-22.1,30.5,-17.1C34.2,-12.2,36.7,-6.1,35.3,-0.8C33.9,4.4,28.4,8.8,25,14.3C21.6,19.7,20.2,26.2,16.4,30C12.6,33.8,6.3,34.9,-0.6,35.9C-7.5,37,-15,38,-20.1,34.9C-25.2,31.9,-27.8,24.7,-30.9,18.2C-34,11.7,-37.6,5.9,-39.3,-1C-41,-7.9,-40.9,-15.7,-35.6,-18.4C-30.3,-21.1,-19.8,-18.5,-13,-20.2C-6.2,-21.8,-3.1,-27.7,1.3,-30C5.7,-32.2,11.5,-31,16.7,-28.5Z" width="100%" height="100%" transform="translate(50 50)" stroke-width="0" style="transition: all 0.3s ease 0s;" stroke="url(#sw-gradient)"></path>              </svg>